<svg xmlns="http://www.w3.org/2000/svg" viewBox="0 0 40 40"><defs><style>.cls-1{fill:#fff;}.cls-2{fill:#e63027;}</style></defs><title>flag-common-labelrouge</title><g id="LABEL_ROUGE"><rect id="BG" class="cls-1" width="40" height="40" rx="4" ry="4"/><path class="cls-2" d="M36.36,17.55c0-.05.06-.23-.06-.31s-.32,0-.43.11a4.09,4.09,0,0,0-1.46,2.48l0,.34.26-.23A5.9,5.9,0,0,0,36.36,17.55Z"/><path class="cls-2" d="M29.09,25.5a.65.65,0,0,0,.39.52.71.71,0,0,0,.2,0,1.35,1.35,0,0,0,.7-.27,3.75,3.75,0,0,0,1.78-3.05,1.16,1.16,0,0,0-.13-.61L32,22l-.13.08C29,23.93,29.08,25.42,29.09,25.5Z"/><path class="cls-2" d="M7.13,23.68a.24.24,0,0,0,0-.25c-.1-.09-.25,0-.3,0s-.67.37-1,2.29c0,.08,0,.27.15.32h.06a.29.29,0,0,0,.23-.15,3.55,3.55,0,0,0,.62-1.36Z"/><path class="cls-2" d="M6.39,19h0c0-.12,0-.2-.13-.22s-.15,0-.32.26a12.73,12.73,0,0,0-1.2,4.24l.23.09A9.49,9.49,0,0,0,6.39,19Z"/><path class="cls-2" d="M26.32,22.24a.27.27,0,0,0,.12,0,.64.64,0,0,0,.29-.1A4.9,4.9,0,0,0,27.58,20a.19.19,0,0,0,0-.17c0-.06-.12-.09-.13-.08a.52.52,0,0,1-.14-.17.18.18,0,0,0-.16-.12h0a.19.19,0,0,0-.15.08,1.35,1.35,0,0,0-.19.27,4,4,0,0,0-.63,2.09C26.16,22.07,26.21,22.18,26.32,22.24Z"/><path class="cls-2" d="M11.28,23.46h.06a.14.14,0,0,0,.13-.07,2.42,2.42,0,0,0,.82-1.46.22.22,0,0,0-.09-.24.25.25,0,0,0-.24,0,4.15,4.15,0,0,0-.76,1.5v0C11.18,23.37,11.21,23.44,11.28,23.46Z"/><path class="cls-2" d="M8.59,25.71a.46.46,0,0,0,.3-.18,5.76,5.76,0,0,0,.9-2.64c0-.08,0-.31-.13-.39a.31.31,0,0,0-.32.06.63.63,0,0,0-.29.34l-.64,2.72.06.05A.19.19,0,0,0,8.59,25.71Z"/><path class="cls-2" d="M15.16,17.79c0-.07,0-.26-.16-.29s-.24.1-.27.15a15.91,15.91,0,0,0-1.12,3.71c0,.18,0,.36-.06.53l.24.07A13.79,13.79,0,0,0,15.16,17.79Z"/><path class="cls-2" d="M25.83,14.5a1.24,1.24,0,0,0,.28-1,1.14,1.14,0,0,0-.56-.67,6.2,6.2,0,0,0-3.75-.22l-.11,0,0,.1a39.43,39.43,0,0,1-.87,4.14l-.06.25L21,17A9.61,9.61,0,0,0,25.83,14.5Z"/><path class="cls-2" d="M3.6,17.82l0,.06L3.8,18l0-.07a.12.12,0,0,0-.05-.18A.13.13,0,0,0,3.6,17.82Z"/><polygon class="cls-2" points="4.09 17.14 4.34 17.36 4.41 17.25 4.09 17.13 4.09 17.14"/><polygon class="cls-2" points="8.21 13.24 7.97 13.02 7.96 13.02 8.11 13.32 8.21 13.24"/><path class="cls-2" d="M14.21,10A.13.13,0,0,0,14,9.89l-.07,0,.08.24.07,0A.12.12,0,0,0,14.21,10Z"/><path class="cls-2" d="M12.79,10.48a.11.11,0,0,0-.16-.08l-.08,0,.1.25.08,0A.12.12,0,0,0,12.79,10.48Z"/><path class="cls-2" d="M16.91,9.23c0-.08-.07-.11-.16-.09h-.07l.06.25.07,0C16.89,9.36,16.93,9.31,16.91,9.23Z"/><polygon class="cls-2" points="3.69 18.66 3.36 18.6 3.36 18.6 3.64 18.79 3.69 18.66"/><path class="cls-2" d="M6.54,14c-.08.07-.06.17.1.35l.06.06a.2.2,0,0,1,.06-.09A.24.24,0,0,1,7,14.29l-.11-.14C6.72,14,6.62,13.94,6.54,14Z"/><path class="cls-2" d="M32.11,29.81c4.41-2.89,6.93-6.9,6.93-11a10.49,10.49,0,0,0-.22-2.16A11.3,11.3,0,0,0,32.9,8.94,21.13,21.13,0,0,0,22.78,6.63h0V6h-.44L17.91,6l0,.5.22,0-.22,0s0,.23,0,.55l-.85.16c-6.5,1.27-11.54,4.19-14.2,8.22a11.44,11.44,0,0,0-2,6.34,11.24,11.24,0,0,0,.26,2.37,11.15,11.15,0,0,0,5.32,7.51c-.7.56-1.41,1.08-2.12,1.55L3.14,34l8.18,0,.13-.13a2.77,2.77,0,0,0,.25-.29,29.87,29.87,0,0,0,10.59,0,27.57,27.57,0,0,0,5.33-1.43,21.23,21.23,0,0,0,1.86,1.8l.12.1h7.56l-1.11-.82A37.07,37.07,0,0,1,32.11,29.81ZM22.48,7.14h.3a20.63,20.63,0,0,1,9.88,2.25,10.82,10.82,0,0,1,5.67,7.34,10,10,0,0,1,.21,2.05c0,4.05-2.53,8-7,10.78l-.08.06-.42-.43c4.76-3,7.57-7.45,6.55-12.29-1.34-6.31-8-9.18-15.16-9.14C22.47,7.52,22.48,7.31,22.48,7.14Zm9.27,14.51A2.26,2.26,0,0,1,31.23,20a3.27,3.27,0,0,1,1.44-2.09,1.85,1.85,0,0,1,.81-.27.38.38,0,0,1,.22.06.47.47,0,0,1,.16.38,1.75,1.75,0,0,1-.13.61l-.55.16c.11-.26.11-.41,0-.5s-.35,0-.42,0a3.09,3.09,0,0,0-.88,1.35c-.14.25.08.71.13.8l.33.53.12.19.08.08.77-.42.32-.21.06-.05v-.06a4.86,4.86,0,0,1,2.55-3.86c.23,0,.39,0,.46.11s0,.54,0,.67h0a7.23,7.23,0,0,1-2.26,2.95l-.05,0v.07a2.31,2.31,0,0,0,1.67,2.32l0,0,0,0V23a2.78,2.78,0,0,1-.43.61.2.2,0,0,1-.23,0,3,3,0,0,1-1.7-2.46l0-.19-.17.1c-.35.22-.59.33-.6.34l-.16.09-.13.07,0,.1a2.11,2.11,0,0,1,.13,1.15A4,4,0,0,1,30,26.33a1.33,1.33,0,0,1-1-.07.7.7,0,0,1-.3-.42,1.89,1.89,0,0,1,.19-1.29,7.1,7.1,0,0,1,2.77-2.73l.11-.07ZM1.7,24a10.72,10.72,0,0,1,1.64-8.32c2.59-3.92,7.51-6.76,13.87-8l1.05-.19h0c0,.19,0,.39,0,.62l-.94.16C6.47,10.37.93,17.05,2.4,23.83A10.27,10.27,0,0,0,7.8,31l-.58.5-.13-.08A10.72,10.72,0,0,1,1.7,24ZM16.87,10l-.21,0-.23-1,.33-.08a.31.31,0,0,1,.37.25.27.27,0,0,1-.14.33l.34.34-.24.05-.31-.33h0Zm-2.64.74-.2.07-.32-1L14,9.69a.31.31,0,0,1,.39.22.25.25,0,0,1-.11.33l.37.31-.23.08-.34-.31h0Zm-.72-.84.07.19-.28.1.07.18.27-.1.07.18-.28.1.08.23.28-.1.07.18-.48.18L13,10Zm-.37.07.06-.24.2-.07-.13.27Zm1.34-.38.2-.07.3,1-.2.06Zm.41-.13.48-.14.06.19-.28.08,0,.19.28-.09.06.19-.29.08.07.24.28-.09.06.19-.49.14Zm.68-.19.21-.06.17.68c0,.09.07.13.17.11s.11-.08.08-.18L16,9.11l.21,0,.18.7c0,.17,0,.32-.26.39a.29.29,0,0,1-.41-.22Zm1.66-.4.5-.11,0,.2L17.48,9l0,.18.29-.06,0,.19-.29.06.05.24.29-.06,0,.19-.5.11ZM12.85,11.2l-.2.08-.37-.95.28-.11a.32.32,0,0,1,.44.18.33.33,0,0,1-.2.44l-.08,0Zm-1.43.3c-.08-.16-.45.11-.59-.2a.29.29,0,0,1,.15-.42.29.29,0,0,1,.42.12l-.18.09a.12.12,0,0,0-.16-.05.11.11,0,0,0-.05.15c.08.16.44-.13.61.22a.3.3,0,0,1-.18.42.3.3,0,0,1-.46-.16l.2-.09c0,.09.1.12.18.08A.11.11,0,0,0,11.42,11.5Zm0-.82.2-.08.27.63c0,.1.09.12.18.09s.1-.1.06-.19l-.27-.64.19-.08.29.67a.29.29,0,0,1-.19.42.3.3,0,0,1-.44-.15ZM6.26,26.06c-.37.59-.56.6-.61.59s-.21-.31-.24-.48a4.54,4.54,0,0,1,1.64-3.7.82.82,0,0,1,.33-.09.34.34,0,0,1,.24.09l-.45.9.57-.12a18.46,18.46,0,0,0-.66,3l-.6.3,0-.87Zm-1.47.1a.36.36,0,0,0,.2.23.89.89,0,0,1-.21.36q-.17.2-.27.18c-.11,0-.22-.27-.26-.41a10.06,10.06,0,0,1-.14-1.23l0-.24-.19.15a2.36,2.36,0,0,1-.51.32h0l-.12-.35a6.23,6.23,0,0,0,.8-.66l0,0v-.05A11.86,11.86,0,0,1,6.21,18c.33-.32.46-.29.49-.28s.14.35.12.57a10.71,10.71,0,0,1-.45,2.77A11,11,0,0,1,4.7,24.39l0,0v0A9,9,0,0,0,4.79,26.16Zm-.28-8.33-.73-.76.11-.17,1,.27-.11.18-.19-.05-.12.21.14.14-.11.19h0l-.11.21-.46,0H4l.36.18-.1.2L3.3,18l.15-.31a.31.31,0,0,1,.43-.12.28.28,0,0,1,.16.31ZM4.4,16.12,4.51,16l.83.58-.1.15-.73-.14h0l.56.39L5,17.1l-.84-.58.12-.17.67.13h0ZM5.79,15l.2-.21.14.13-.2.22.17.16.21-.21.14.13-.35.37-.74-.7.34-.37.15.14-.2.21Zm1.85-1.29-.43-.54.17-.13.45.57a.29.29,0,0,1-.07.45.3.3,0,0,1-.47,0l-.45-.57L7,13.38l.43.54c.06.08.12.09.19,0S7.71,13.83,7.64,13.75Zm2.29-1.14-.19.1L9.33,12l-.16.09-.09-.17.48-.28.1.17-.15.08Zm-.44.26L9.3,13l-.54-.86L9,12ZM8.86,13l.22-.15.11.16-.4.27-.57-.85.18-.12Zm-.15.33-.18.13-.16-.13-.19.14.07.19-.17.13-.37-1,.16-.11ZM7,14a.85.85,0,0,1,.18.29h0l0,0,.13.14,0,0a.19.19,0,0,1-.14.06.33.33,0,0,1-.11.16c-.19.17-.42.1-.64-.13s-.25-.48-.06-.65S6.83,13.77,7,14ZM6,15.77l-.14.16-.77-.67.14-.16Zm-.86-.26L5,15.65l.64.51-.13.17-.64-.52L4.77,16l-.16-.12L5,15.39Zm-.94,3-.09.2-.2,0-.09.22L4,19l-.08.2L3,18.58l.08-.18Zm-.94.56-.07.21c-.1,0-.19,0-.22.09s0,.18.26.26.34,0,.37-.05a.17.17,0,0,0-.13-.21l-.05.17-.19-.06.12-.38.19.06a.36.36,0,0,1,.25.48c-.07.21-.28.3-.62.19s-.46-.3-.39-.52A.37.37,0,0,1,3.24,19.07Zm4.5,6.81.11-.05,1.3-6.17.68-.13-.62,2.7,0,.09.07.07c.08.07.18,0,.22,0l0,0c.1-.1.38-.35.6-.33s.15.07.21.18a5.25,5.25,0,0,1-.4,2.49c-.13.31-.58,1.18-1,1.36a1.17,1.17,0,0,1-.77.18.55.55,0,0,1-.35-.29Zm2.44-13.42-.48-.9.44-.24.1.17-.26.14.09.17.26-.14.09.17-.26.14.12.21.26-.14.09.18Zm-.39-1,0-.25.19-.1-.09.28ZM22.21,33a29.22,29.22,0,0,1-10.48,0l0,0q.36-.26.72-.48a29.07,29.07,0,0,0,9.7-.09,26,26,0,0,0,5-1.31l.4.45A26.94,26.94,0,0,1,22.21,33Zm7.61.35a32,32,0,0,1-5.49-6.56c.72-.65,1.29-1.11,1.3-1.12l.25-.2-.31-.08a11.4,11.4,0,0,0-2.22-.22,34,34,0,0,1-2.82-6.41l-.15-.47-.15.46a32.48,32.48,0,0,1-3.55,7.64l-.08.12.12.08.09-.12h0l.06.15a16.64,16.64,0,0,1,8.31-1,18.26,18.26,0,0,0-3.8,4c-.72-.09-4.71-.41-9.43,2.8h0l-.39.26h0l-.27.32,0,0-.18.21,0,0-5.88,0a30.11,30.11,0,0,0,8-8,7.32,7.32,0,0,1-.23-1.2l0-.32-.19.25a13.78,13.78,0,0,1-1.3,1.46.57.57,0,0,1-.45.18.38.38,0,0,1-.21-.1h0a2.69,2.69,0,0,1-.16-1.22,6.16,6.16,0,0,1,1.17-2.86c.27-.24.5-.34.65-.29s.2.25.21.25A3,3,0,0,1,11.11,24l-.07,0,0,.74v0h0c.05.17.13.27.25.29a.47.47,0,0,0,.36-.23,9.75,9.75,0,0,0,1.21-1.42l0,0v0c.23-4.93,2.07-6.64,2.24-6.79a.36.36,0,0,1,.34,0c.2.15.21.67.19.84a13.21,13.21,0,0,1-2.12,5.47l0,0v0a7.39,7.39,0,0,0,.18,1.53A33.25,33.25,0,0,0,18.57,6.6l3.6.05c0,.31,0,1.08-.07,2.17V9h.18a19.08,19.08,0,0,1,5.85.62,3.18,3.18,0,0,1,2.38,3.76s-.57,3.46-6.06,5.67l-.13.05,0,.14A17.79,17.79,0,0,0,25.51,22c0-.09.07-.16.08-.17.52-2.54,1.28-2.77,1.28-2.77h.05a.15.15,0,0,0,.16,0,.15.15,0,0,0,.11-.13.82.82,0,0,1,.14-.36h.11l.27-.07s0,0,.08.06a2.72,2.72,0,0,1,.15.34.27.27,0,0,0,.11.25c.13.07.28,0,.33-.07a4.31,4.31,0,0,0,.71-.53l.63-.1-.87,2.83c0,.06-.06.26.07.34s.31,0,.39-.11.25-.2.4-.33.08-.05.14-.28l.82-2.61.58-.09-.9,3a.23.23,0,0,0,.07.25.16.16,0,0,0,.09,0l0,.11a2.41,2.41,0,0,1-.7.48s-.08,0-.1,0a.33.33,0,0,1,0-.23.16.16,0,0,0-.11-.15.18.18,0,0,0-.2.07,2.05,2.05,0,0,1-.85.61c-.15,0-.25,0-.3,0s-.05-.63.06-.94L29,19l-.89.53v.06c-.22,2.43-1.33,3.09-1.36,3.1a.6.6,0,0,1-.78,0,34,34,0,0,0,9.4,10.67Z"/><path class="cls-2" d="M6.84,14.49l0,0a.13.13,0,0,0,.17,0,.1.1,0,0,0,0-.07A.17.17,0,0,0,6.84,14.49Z"/></g></svg>