<svg id="Viande_bovine" data-name="Viande bovine" xmlns="http://www.w3.org/2000/svg" viewBox="3 3 34 34"><title>flag-common-ecolabel</title><path id="path8454" d="M39.258,24.008a.169.169,0,0,1,0,.023l.1-.081c-.033.021-.066.039-.1.058" style="fill:#28215c"/><rect x="0.521" y="0.5" width="39" height="39" rx="3.5" ry="3.5" style="fill:#fff"/><path d="M36.021,1a3,3,0,0,1,3,3V36a3,3,0,0,1-3,3h-32a3,3,0,0,1-3-3V4a3,3,0,0,1,3-3h32m0-1h-32a4,4,0,0,0-4,4V36a4,4,0,0,0,4,4h32a4,4,0,0,0,4-4V4a4,4,0,0,0-4-4Z" style="fill:#e5e5e5"/><path id="path8492" d="M6.658,35.706V25.436H9.523v.814H7.456v4.32H8.712v.814H7.456v3.507H9.523v.815Z" style="fill:#286199"/><path id="path8494" d="M12.544,31.03V29.862a.636.636,0,0,0-1.083-.447.6.6,0,0,0-.184.447v4.49a.6.6,0,0,0,.184.448.634.634,0,0,0,1.083-.448V33.276h.8v1.076a1.414,1.414,0,0,1-.111.565,1.449,1.449,0,0,1-.3.46,1.409,1.409,0,0,1-.457.309,1.463,1.463,0,0,1-1.118,0,1.409,1.409,0,0,1-.457-.309,1.385,1.385,0,0,1-.3-.46,1.415,1.415,0,0,1-.113-.565v-4.49a1.418,1.418,0,0,1,.113-.565,1.365,1.365,0,0,1,.3-.46,1.425,1.425,0,0,1,.457-.309,1.463,1.463,0,0,1,1.118,0,1.44,1.44,0,0,1,.873,1.334V31.03Z" style="fill:#286199"/><path id="path8496" d="M16.575,29.862a.633.633,0,0,0-.635-.631.617.617,0,0,0-.45.184.606.606,0,0,0-.185.447v4.492a.605.605,0,0,0,.185.446.636.636,0,0,0,1.085-.446Zm.8,4.492a1.411,1.411,0,0,1-.111.563,1.365,1.365,0,0,1-.305.46,1.422,1.422,0,0,1-.455.309,1.434,1.434,0,0,1-1.577-.309,1.427,1.427,0,0,1-.3-.46,1.411,1.411,0,0,1-.111-.563V29.862a1.417,1.417,0,0,1,.111-.565,1.449,1.449,0,0,1,.3-.46,1.414,1.414,0,0,1,.457-.309,1.468,1.468,0,0,1,1.12,0,1.438,1.438,0,0,1,.455.309,1.385,1.385,0,0,1,.305.46,1.434,1.434,0,0,1,.111.565Z" style="fill:#286199"/><path id="path8498" d="M19.334,35.706h-.8V25.449h.8Z" style="fill:#286199"/><path id="path8500" d="M21.3,34.352a.6.6,0,0,0,.184.448.634.634,0,0,0,1.083-.448V32.2a.636.636,0,0,0-1.083-.448.6.6,0,0,0-.184.448Zm1.267,1.3a1.864,1.864,0,0,1-.293.1,1.4,1.4,0,0,1-.335.038,1.418,1.418,0,0,1-.563-.111,1.394,1.394,0,0,1-.456-.309,1.409,1.409,0,0,1-.308-.46,1.432,1.432,0,0,1-.113-.565V32.2a1.432,1.432,0,0,1,.113-.565,1.409,1.409,0,0,1,.308-.46,1.394,1.394,0,0,1,.456-.309,1.418,1.418,0,0,1,.563-.111,1.306,1.306,0,0,1,.348.045,2.355,2.355,0,0,1,.28.1V29.862a.61.61,0,0,0-.185-.448.642.642,0,0,0-.9,0,.6.6,0,0,0-.184.448v.354h-.8v-.354a1.432,1.432,0,0,1,.113-.565,1.431,1.431,0,0,1,2.337-.46,1.446,1.446,0,0,1,.306.46,1.43,1.43,0,0,1,.11.565v5.843h-.8Z" style="fill:#286199"/><path id="path8502" d="M26.409,29.415a.634.634,0,0,0-1.083.447v4.49a.635.635,0,0,0,1.27,0v-4.49a.611.611,0,0,0-.187-.447m-.8-.953a1.3,1.3,0,0,1,.348-.045,1.439,1.439,0,0,1,1.439,1.445v4.49a1.453,1.453,0,0,1-.42,1.025,1.394,1.394,0,0,1-.457.309,1.418,1.418,0,0,1-.562.113,1.4,1.4,0,0,1-.336-.04,1.9,1.9,0,0,1-.293-.1v.052h-.8V25.449h.8V28.56a2.5,2.5,0,0,1,.281-.1" style="fill:#286199"/><path id="path8504" d="M29.355,31.831h1.27V29.862a.609.609,0,0,0-.185-.447.642.642,0,0,0-.9,0,.609.609,0,0,0-.185.447Zm-.8-1.969a1.434,1.434,0,0,1,.111-.567,1.5,1.5,0,0,1,.3-.458,1.447,1.447,0,0,1,.457-.309,1.468,1.468,0,0,1,1.12,0,1.447,1.447,0,0,1,.457.309,1.5,1.5,0,0,1,.3.458,1.47,1.47,0,0,1,.111.567v2.783H29.355v1.707a.635.635,0,0,0,1.27,0v-.537h.8v.537a1.466,1.466,0,0,1-.111.567,1.426,1.426,0,0,1-.762.767,1.468,1.468,0,0,1-1.12,0,1.435,1.435,0,0,1-.873-1.334Z" style="fill:#286199"/><path id="path8506" d="M33.384,35.706h-.8V25.449h.8Z" style="fill:#286199"/><path id="path8508" d="M9.048,24.992H6.7V21.421H9.048v.422H7.178v.98h1.87v.422H7.178v1.326h1.87Z" style="fill:#4fa630"/><path id="path8510" d="M12.478,23.558a2.4,2.4,0,0,1-.085.678,1.1,1.1,0,0,1-.278.482,1.115,1.115,0,0,1-.431.266,2.011,2.011,0,0,1-1.157,0,1.106,1.106,0,0,1-.418-.262,1.156,1.156,0,0,1-.278-.476,2.353,2.353,0,0,1-.085-.684V21.421h.473v2.161a2.107,2.107,0,0,0,.039.458.951.951,0,0,0,.133.307.67.67,0,0,0,.285.234,1.112,1.112,0,0,0,.435.079,1.07,1.07,0,0,0,.435-.079.659.659,0,0,0,.287-.234.9.9,0,0,0,.131-.314,1.949,1.949,0,0,0,.041-.439V21.421h.473Z" style="fill:#4fa630"/><path id="path8512" d="M23.427,8.037a3.175,3.175,0,0,0-.329-.153,2.621,2.621,0,0,0-1.873,4.895,2.647,2.647,0,0,0,.346.107.321.321,0,0,0,.389-.26.344.344,0,0,0-.229-.431,1.788,1.788,0,0,1-.253-.076,1.92,1.92,0,0,1-1.191-2.134l1.4.537a.316.316,0,0,0,.42-.2.339.339,0,0,0-.169-.452l-1.4-.539a1.9,1.9,0,0,1,2.3-.784,2.375,2.375,0,0,1,.246.108.316.316,0,0,0,.444-.144.34.34,0,0,0-.108-.471" style="fill:#4fa630"/><path id="path8514" d="M20.153,19.068c-.089,2.11-.851,1.607-.742,5.283-.332-2.257.025-2.564.539-4.558a7.487,7.487,0,0,0-.648,4.624c-.146.16.036.795-.53.5-.467-.78-.45-2.052.785-6.6.043-.189.647-.509.6.744" style="fill:#4fa630"/><path id="path8516" d="M14.643,21.506a3.8,3.8,0,0,1,2.182.335,4.373,4.373,0,0,1,.93.76,4.77,4.77,0,0,1,.231.5c.072.147-.5.147-.813.147-.452,0-1.781-1.737-2.53-1.737" style="fill:#4fa630"/><path id="path8518" d="M18.175,21.1c.147.262.117.584-.189.437-.382-.181-.974-.437-1.25-.612-1.488-.944-3.545-5.487-5.625-6.027a3.975,3.975,0,0,1,.959.03c.372.071,5.829,2.962,6.105,6.172" style="fill:#4fa630"/><path id="path8520" d="M20.966,21.666c-1.133-1.547,2.2-3.706,5.8-2.276a4.835,4.835,0,0,0-1.524.175c.114.174.914.234,1.64.292a1.346,1.346,0,0,0-.522-.233c1.163-.132,1.847.584,2.6.787-.39.029-.653.029-.753.029.012.06.042.045.114.133a6.02,6.02,0,0,0-2.281.072,3.657,3.657,0,0,1-1.119.03c.057.072.132.087.174.16a4.618,4.618,0,0,0-2.573.379.772.772,0,0,1,.232-.2c-.756.174-1.569.788-1.788.656" style="fill:#4fa630"/><path id="path8522" d="M20.415,23.17c0-.481.989-.656,1.367-.743a8.926,8.926,0,0,1,1.844-.337,5.555,5.555,0,0,1,3.055.788,4.367,4.367,0,0,0-1.469-.306c.1.072.117.1.131.147a.745.745,0,0,0-.407.115,7.461,7.461,0,0,1,.915.044c-.276.058-1.164.2-1.352.263a1.238,1.238,0,0,1,.246.117c-.639.057-2.121.773-2.732.788s-1.6-.03-1.6-.876" style="fill:#4fa630"/><path id="path8524" d="M22.446,4.272l.571-.416H22.31l-.219-.673-.216.673h-.707l.571.416-.219.675.571-.417.571.417Z" style="fill:#286199"/><path id="path8526" d="M25.643,5.09l.571-.415h-.7L25.29,4l-.218.676h-.7l.571.415-.219.674.571-.416.571.416Z" style="fill:#286199"/><path id="path8528" d="M27.882,7.513l.571-.417h-.707l-.216-.674-.219.674H26.6l.571.417-.216.674.571-.416.569.416Z" style="fill:#286199"/><path id="path8530" d="M19.245,5.09l.571-.415h-.7L18.893,4l-.219.676h-.7l.571.415-.218.674.571-.416.571.416Z" style="fill:#286199"/><path id="path8532" d="M17.008,7.513l.571-.417h-.707l-.219-.674-.216.674H15.73l.571.417-.219.674.571-.418.571.418Z" style="fill:#286199"/><path id="path8534" d="M28.667,10.548l.571-.416h-.706l-.219-.675-.217.675H27.39l.571.416-.219.673.571-.415.571.415Z" style="fill:#286199"/><path id="path8536" d="M27.793,13.7l.571-.416h-.705l-.218-.673-.219.673h-.705l.571.416-.218.673.571-.415.571.415Z" style="fill:#286199"/><path id="path8538" d="M25.481,15.969l.569-.415h-.7l-.219-.674-.217.674H24.2l.571.415-.219.674.571-.416.571.416Z" style="fill:#286199"/><path id="path8540" d="M17.1,13.7l.571-.416h-.705l-.219-.673-.218.673h-.7l.571.416-.219.673.571-.415.571.415Z" style="fill:#286199"/><path id="path8542" d="M19.408,15.969l.571-.415h-.706l-.219-.676-.217.676h-.7l.569.415-.217.674.571-.416.571.416Z" style="fill:#286199"/><path id="path8544" d="M16.222,10.548l.571-.416h-.707l-.218-.675-.217.675h-.7l.568.416-.216.673.571-.415.571.415Z" style="fill:#286199"/><path id="path8546" d="M22.446,16.89l.571-.416H22.31l-.219-.673-.216.673h-.707l.571.416-.219.673.571-.415.571.415Z" style="fill:#286199"/></svg>